<?xml version="1.0" standalone="no"?>
<!DOCTYPE svg PUBLIC "-//W3C//DTD SVG 20010904//EN"
 "http://www.w3.org/TR/2001/REC-SVG-20010904/DTD/svg10.dtd">
<svg version="1.0" xmlns="http://www.w3.org/2000/svg"
 width="2400.000000pt" height="2398.000000pt" viewBox="0 0 2400.000000 2398.000000"
 preserveAspectRatio="xMidYMid meet">

<g transform="translate(0.000000,2398.000000) scale(0.100000,-0.100000)"
fill="#000000" stroke="none">
<path d="M16245 22463 c-22 -2 -114 -15 -205 -29 -702 -108 -1540 -474 -2165
-944 -179 -135 -280 -224 -466 -409 -389 -389 -694 -812 -943 -1312 -264 -527
-414 -1049 -456 -1589 -12 -149 -8 -501 6 -611 6 -44 8 -47 43 -53 69 -11 383
-6 529 9 799 84 1567 479 2287 1177 762 739 1271 1618 1454 2513 63 309 75
443 76 830 0 193 -4 367 -8 388 l-8 37 -52 -2 c-29 -1 -70 -3 -92 -5z"/>
<path d="M15840 17504 c-400 -27 -677 -71 -1073 -169 -312 -78 -532 -148
-1047 -332 -838 -300 -1271 -436 -1503 -473 -194 -30 -683 103 -1542 420 -739
273 -1223 409 -1695 475 -254 36 -654 30 -1005 -15 -1501 -192 -2858 -1044
-3713 -2331 -405 -610 -679 -1228 -860 -1944 -325 -1282 -307 -2834 53 -4411
304 -1335 855 -2714 1538 -3853 330 -550 919 -1362 1368 -1888 528 -617 1060
-1057 1539 -1273 706 -318 1349 -265 2570 210 377 147 576 213 835 280 412
105 749 150 1130 150 581 -1 1128 -121 1860 -410 552 -217 954 -331 1360 -386
182 -24 490 -24 650 0 450 68 877 252 1270 547 490 367 978 915 1645 1849 660
924 1129 1819 1514 2890 37 102 74 202 82 224 8 21 14 40 12 41 -2 2 -55 26
-118 55 -392 175 -756 406 -1110 701 -146 121 -523 494 -632 624 -542 650
-861 1359 -987 2195 -78 518 -73 1103 14 1608 192 1111 779 2036 1760 2772
107 79 391 273 468 317 20 12 37 26 37 31 0 5 -37 58 -82 118 -853 1139 -2085
1786 -3719 1954 -189 19 -507 32 -619 24z"/>
</g>
</svg>
